<svg version="1.1" viewBox="0.0 0.0 960.0 540.0" fill="none" stroke="none" stroke-linecap="square" stroke-miterlimit="10" xmlns:xlink="http://www.w3.org/1999/xlink" xmlns="http://www.w3.org/2000/svg"><clipPath id="g4fc224f229_0_20.0"><path d="m0 0l960.0 0l0 540.0l-960.0 0l0 -540.0z" clip-rule="nonzero"/></clipPath><g clip-path="url(#g4fc224f229_0_20.0)"><path fill="#ffffff" d="m0 0l960.0 0l0 540.0l-960.0 0z" fill-rule="evenodd"/><path fill="#000000" fill-opacity="0.0" d="m0 0l314.96063 0l0 314.96063l-314.96063 0z" fill-rule="evenodd"/><path fill="#ffffff" d="m9.0 9.000008l128.0 0l0 153.6l-128.0 0l0 -153.6z" fill-rule="nonzero"/><path fill="#333333" d="m118.75 86.317505q0 11.3125 -5.84375 20.46875q-5.84375 9.15625 -15.78125 13.6875q-9.9375 4.53125 -23.3125 4.53125q-9.25 0 -17.15625 -3.0q-7.90625 -3.0 -13.71875 -8.96875q-5.8125 -5.96875 -8.3125 -13.71875l-2.375 -7.125q-1.875 -5.375 -2.625 -8.75q-0.75 -3.375 -0.75 -6.8125q0 -6.5 3.28125 -10.15625q3.28125 -3.65625 8.84375 -3.65625q1.0625 0 1.75 -0.15625q0.6875 -0.15625 1.0625 -1.21875q1.25 -3.6875 4.25 -5.75q3.0 -2.0625 7.125 -2.0625q1.8125 0 3.21875 0.375q1.40625 0.375 2.28125 0.375q1.1875 0 1.9375 -1.125q3.875 -6.0 10.3125 -6.0q3.75 0 7.1875 2.1875l0.9375 0.4375q0.5 0 1.25 -0.6875q3.9375 -3.4375 9.375 -3.4375q4.625 0 8.1875 2.90625q3.5625 2.90625 4.4375 6.96875l0.5625 3.4375q0.4375 4.0625 0.96875 5.6875q0.53125 1.625 1.59375 2.0q5.0625 1.75 8.1875 6.4375q3.125 4.6875 3.125 13.125zm-27.625 -34.1875q-2.6875 0 -4.3125 2.15625q-1.625 2.15625 -1.625 4.96875l0.4375 6.8125q1.5625 -0.3125 4.25 -0.3125q3.8125 0 9.1875 0.75l-0.25 -7.3125q-0.125 -3.375 -2.21875 -5.21875q-2.09375 -1.84375 -5.46875 -1.84375zm-18.0625 1.375q-3.0 0 -4.5625 1.59375q-1.5625 1.59375 -1.5625 4.46875l0.125 1.25q2.3125 13.75 3.25 17.3125q0.9375 3.5625 2.4375 4.78125q1.5 1.21875 3.5 1.21875q1.5625 0 2.125 -0.375q0.5625 -0.375 1.3125 -1.0q-2.875 -2.625 -2.875 -7.3125q0 -3.375 1.0625 -5.3125q1.0625 -1.9375 3.1875 -3.0l-0.875 -7.25q-0.4375 -3.375 -2.46875 -4.875q-2.03125 -1.5 -4.65625 -1.5zm-17.5 5.9375q-3.125 0 -4.75 1.9375q-1.625 1.9375 -1.625 4.9375q0 2.0 2.34375 9.09375q2.34375 7.09375 3.53125 9.28125q1.6875 3.125 5.125 3.125q2.3125 0 3.96875 -1.40625q1.65625 -1.40625 1.65625 -3.46875l-0.125 -1.125l-3.625 -17.0625q-0.625 -2.8125 -2.46875 -4.0625q-1.84375 -1.25 -4.03125 -1.25zm-11.4375 33.1875q2.3125 0 4.1875 -1.34375q1.875 -1.34375 1.875 -3.40625l-0.1875 -1.375l-4.0625 -13.3125q-1.375 -4.4375 -5.6875 -4.4375q-2.8125 0 -4.375 1.75q-1.5625 1.75 -1.5625 5.0q0 2.3125 2.625 8.65625q2.625 6.34375 3.84375 7.40625q1.21875 1.0625 3.34375 1.0625zm29.8125 26.375q11.5625 0 20.09375 -4.15625q8.53125 -4.15625 13.125 -11.5625q4.59375 -7.40625 4.59375 -16.78125q0 -3.9375 -0.875 -7.3125q-0.875 -3.375 -4.3125 -5.71875q-3.4375 -2.34375 -7.0 -2.34375q-1.6875 -0.0625 -4.53125 -0.5q-2.84375 -0.4375 -5.71875 -0.4375q-8.1875 0 -8.1875 5.75q0 2.5625 1.75 4.4375q1.75 1.875 4.6875 3.0q2.9375 1.125 5.3125 1.125l0.75 -0.0625q-0.5 1.4375 -0.90625 3.6875q-0.40625 2.25 -0.40625 3.75l-2.25 0.625q-5.5 1.4375 -9.5625 4.0q-1.4375 0.9375 -4.0 3.625q-1.75 1.875 -2.6875 1.875q-1.5 0 -1.5 -1.5625q0 -1.75 1.46875 -4.84375q1.46875 -3.09375 2.28125 -4.09375l0.125 -0.3125q0 -0.375 -1.9375 -0.6875q-2.375 -0.375 -3.125 -1.125q-1.75 1.6875 -3.78125 3.15625q-2.03125 1.46875 -4.46875 1.46875q-1.875 0 -4.0 -0.625q-2.125 -0.625 -2.875 -1.1875q-0.5 1.9375 -2.5 3.53125q-2.0 1.59375 -3.8125 1.59375l-5.0625 -0.375q-2.0625 0 -2.0625 2.1875q0 3.8125 4.53125 9.03125q4.53125 5.21875 11.4375 8.03125q6.90625 2.8125 15.40625 2.8125z" fill-rule="nonzero"/></g></svg>