<svg id="Layer_1" data-name="Layer 1" xmlns="http://www.w3.org/2000/svg" viewBox="0 0 37.9 48.7">
  <defs>
    <style>
      .cls-1 {
        fill: #969696;
      }
    </style>
  </defs>
  <title>off_party</title>
  <path class="cls-1" d="M29.2,12.3V10.7a3.4,3.4,0,0,0-3.3-3.4H24.5V1.7A1.1,1.1,0,0,0,23.3.6a1.1,1.1,0,0,0-1.1,1.1V7.3H21a3.4,3.4,0,0,0-3.3,3.4v1.6a19,19,0,1,0,11.5,0Zm7.7,8.1H32.8a18.7,18.7,0,0,0-1.5-3.2,12,12,0,0,0-1.5-2.4A17.1,17.1,0,0,1,36.9,20.4ZM6.8,31.6h5.8a36.2,36.2,0,0,0,.9,6.6H8.7A15.3,15.3,0,0,1,6.8,31.6ZM24.5,20.4V13.7c1.8.4,3.5,2,4.9,4.6a20,20,0,0,1,1,2.1Zm6.6,2.3a24.5,24.5,0,0,1,1,6.6H24.5V22.7Zm-8.9-8.9v6.6H16.5a20,20,0,0,1,1-2.1C18.9,15.8,20.5,14.3,22.2,13.8Zm0,8.9v6.6H14.8a29.3,29.3,0,0,1,1-6.6Zm-9.6,6.6H6.7a16.8,16.8,0,0,1,1.9-6.6h4.9A25,25,0,0,0,12.6,29.3Zm2.2,2.3h7.4v6.6H15.8a29.3,29.3,0,0,1-1-6.6Zm7.4,8.9v6.4c-1.7-.5-3.3-2-4.7-4.5l-.9-1.9ZM24.5,47V40.5h5.8a16.3,16.3,0,0,1-.9,1.9C28,45,26.3,46.5,24.5,47Zm0-8.8V31.6h7.6a29.3,29.3,0,0,1-1,6.6Zm9.8-6.6h5.9a16.9,16.9,0,0,1-2,6.6H33.4a29.2,29.2,0,0,0,.9-6.6Zm0-2.3a25,25,0,0,0-.9-6.6h4.9a16.8,16.8,0,0,1,1.9,6.6ZM19.9,10.7A1.2,1.2,0,0,1,21,9.5h5a1.1,1.1,0,0,1,1,1.2v1a21.2,21.2,0,0,0-7.1,0v-1Zm-2.8,4.1a15.8,15.8,0,0,0-1.5,2.4,18.7,18.7,0,0,0-1.5,3.2H10a17.7,17.7,0,0,1,7.1-5.6Zm-7,25.7h4.1a20.2,20.2,0,0,0,1.4,3,11.4,11.4,0,0,0,1.5,2.3A16.8,16.8,0,0,1,10.1,40.5Zm19.7,5.3a18.8,18.8,0,0,0,1.6-2.3c.5-1,.9-2,1.3-3h4.1A16.8,16.8,0,0,1,29.8,45.8Z" transform="translate(-4.5 -0.6)"/>
</svg>
